Coordinates
version=1
nRows=8
nColumns=34
inDegrees=yes

Units are S.I. units (second, meters, Newtons, ...)
If the header above contains a line with 'inDegrees', this indicates whether rotational values are in degrees (yes) or radians (no).

endheader
time	pelvis_tilt	pelvis_list	pelvis_rotation	pelvis_tx	pelvis_ty	pelvis_tz	hip_flexion_r	hip_adduction_r	hip_rotation_r	knee_angle_r	ankle_angle_r	subtalar_angle_r	mtp_angle_r	hip_flexion_l	hip_adduction_l	hip_rotation_l	knee_angle_l	ankle_angle_l	subtalar_angle_l	mtp_angle_l	lumbar_extension	lumbar_bending	lumbar_rotation	arm_flex_r	arm_add_r	arm_rot_r	elbow_flex_r	pro_sup_r	arm_flex_l	arm_add_l	arm_rot_l	elbow_flex_l	pro_sup_l
      3.48333330	    -13.07558946	      0.15879838	     -1.03653528	     -0.03072671	      1.12459384	     -0.05865545	     33.91413693	      1.66981438	     -3.55751552	     49.82000141	     35.40107510	    -14.72302304	      0.00000000	     36.47642163	     -3.18447635	     -4.63980612	     55.27248206	     26.81905687	    -19.21626831	      0.00000000	    -10.41465479	      0.53642229	     -0.14793063	      9.14768506	    -16.75133670	     16.98423921	     87.10975373	     80.27563787	     -2.81640510	    -16.30862885	      1.11214943	     92.12479970	     88.50913455
      3.50000000	    -13.82933942	      0.05970187	     -1.13976392	     -0.03350558	      1.11548568	     -0.05993297	     37.00973319	      1.92649342	     -3.28424446	     53.95837645	     37.41878783	    -14.71308136	      0.00000000	     39.62341116	     -3.09979932	     -3.75727694	     59.54830583	     28.48567774	    -19.88826459	      0.00000000	    -11.83629557	      0.58126675	     -0.39520296	     10.06076214	    -16.84183955	     17.46723550	     87.02619394	     80.89101704	     -2.34889672	    -16.15383168	      0.96162670	     92.11620470	     89.16988579
      3.51666670	    -14.64015941	      0.03724115	     -1.23985224	     -0.03600233	      1.10241814	     -0.05833730	     39.96577979	      2.25816668	     -2.94196654	     57.77269578	     39.02567505	    -14.57708386	      0.00000000	     42.53092532	     -2.92522721	     -2.89708671	     63.39057744	     29.79665087	    -20.26847011	      0.00000000	    -13.36426722	      0.50756545	     -0.55079290	     10.92420311	    -16.72498953	     17.81897476	     86.47287971	     81.49276807	     -1.74744651	    -15.91868396	      0.80712448	     91.48761873	     89.80014335
      3.53333330	    -15.49307535	      0.02495950	     -1.34191850	     -0.03556338	      1.08375506	     -0.05588967	     42.95088077	      2.74252610	     -2.55145792	     61.91342005	     40.82029459	    -14.61638621	      0.00000000	     45.38322853	     -2.81962111	     -2.09777603	     67.26498626	     31.16324253	    -20.59296819	      0.00000000	    -14.84427948	      0.37409121	     -0.65602432	     11.62396776	    -16.43192327	     18.01925051	     85.64450387	     82.07642402	     -1.04991188	    -15.81352090	      0.77447315	     90.60019325	     90.39098174
      3.55000000	    -16.43538840	      0.06720107	     -1.50319106	     -0.03349756	      1.06787844	     -0.05454535	     45.73765662	      3.24242322	     -2.20865180	     65.67970328	     42.62041193	    -14.30424196	      0.00000000	     48.25983207	     -2.74525809	     -1.54623470	     71.09583027	     32.37410392	    -20.98813358	      0.00000000	    -16.03031295	      0.18517734	     -0.64525347	     12.05337233	    -15.88502213	     18.02608447	     84.28375971	     82.69698406	     -0.49471109	    -15.62497783	      0.77846295	     88.98324187	     90.97263681
      3.56666670	    -17.17363578	      0.14452187	     -1.74701384	     -0.03535931	      1.06088028	     -0.05536304	     48.20365824	      3.68219306	     -1.79391996	     68.95766247	     43.78396367	    -14.48186998	      0.00000000	     50.46886977	     -2.58247032	     -1.10600764	     73.88106259	     32.97256372	    -21.48127324	      0.00000000	    -17.32250824	     -0.03051424	     -0.46094600	     12.63408985	    -15.03429374	     17.62873165	     81.54647259	     83.35854898	      0.50568632	    -15.17345993	      0.90058300	     85.84851739	     91.57331511
      3.58333330	    -17.46526194	      0.13313746	     -2.07712431	     -0.02896669	      1.05338204	     -0.05217114	     49.38869962	      4.27863321	     -1.49164643	     71.12726851	     44.59516393	    -14.35001235	      0.00000000	     51.34175493	     -2.67951973	     -0.73252139	     75.61645338	     33.80478495	    -21.36592859	      0.00000000	    -18.81135068	     -0.19504585	     -0.08902464	     12.93371579	    -13.76143832	     17.06320131	     77.44855193	     83.94330345	      1.60520913	    -14.42313892	      1.05217140	     81.21313200	     92.05648108
      3.60000000	    -17.39010586	      0.12955265	     -2.39314539	     -0.02117613	      1.04496711	     -0.04941420	     49.54778998	      4.97898792	     -1.16208053	     72.47068369	     45.39898363	    -14.27633320	      0.00000000	     51.29151886	     -2.96291089	     -0.69182252	     76.77985617	     34.45860489	    -21.14861594	      0.00000000	    -20.25632346	     -0.52941252	      0.30756305	     12.99318750	    -12.16358236	     16.25806077	     72.24186409	     84.51148141	      2.96498167	    -13.56816101	      1.40662870	     74.97308332	     92.48806665
